<svg width="80" height="80" viewBox="0 0 80 80" fill="none" xmlns="http://www.w3.org/2000/svg">
<path d="M80 40C80 62.0914 62.0914 80 40 80C17.9086 80 0 62.0914 0 40C0 17.9086 17.9086 0 40 0C62.0914 0 80 17.9086 80 40Z" fill="#0052B3"/>
<path d="M59 61C61.2091 61 63 59.2091 63 57C63 54.7909 61.2091 53 59 53C56.7909 53 55 54.7909 55 57C55 59.2091 56.7909 61 59 61Z" fill="white"/>
<path d="M30 61C32.2091 61 34 59.2091 34 57C34 54.7909 32.2091 53 30 53C27.7909 53 26 54.7909 26 57C26 59.2091 27.7909 61 30 61Z" fill="white"/>
<path d="M62 48H30.771L31.438 46.918C31.724 46.454 31.808 45.893 31.671 45.365L31.02 42.859L60.003 41.353C61.102 41.297 62 40.35 62 39.25V26C62 24.9 61.1 24 60 24H26.119L25.728 22.497C25.6166 22.0683 25.3661 21.6888 25.0157 21.4178C24.6653 21.1469 24.2349 20.9999 23.792 21H17C16.4696 21 15.9609 21.2107 15.5858 21.5858C15.2107 21.9609 15 22.4696 15 23C15 23.5304 15.2107 24.0391 15.5858 24.4142C15.9609 24.7893 16.4696 25 17 25H22.246L27.586 45.545L25.486 48.95C25.2992 49.253 25.1967 49.6003 25.1892 49.9562C25.1816 50.312 25.2692 50.6634 25.443 50.974C25.6161 51.285 25.8691 51.5441 26.1759 51.7245C26.4827 51.9049 26.8321 52 27.188 52H62C62.5304 52 63.0391 51.7893 63.4142 51.4142C63.7893 51.0391 64 50.5304 64 50C64 49.4696 63.7893 48.9609 63.4142 48.5858C63.0391 48.2107 62.5304 48 62 48Z" fill="white"/>
</svg>
