<svg width="80" height="80" viewBox="0 0 80 80" fill="none" xmlns="http://www.w3.org/2000/svg">
<path d="M80 40C80 62.0914 62.0914 80 40 80C17.9086 80 0 62.0914 0 40C0 17.9086 17.9086 0 40 0C62.0914 0 80 17.9086 80 40Z" fill="#13A510"/>
<path d="M80 40C80 47.9113 77.654 55.6448 73.2588 62.2228C68.8635 68.8008 62.6164 73.9277 55.3073 76.9552C47.9983 79.9827 39.9556 80.7748 32.1964 79.2314C24.4372 77.688 17.3098 73.8784 11.7157 68.2843C6.12165 62.6902 2.31202 55.5628 0.768607 47.8036C-0.774802 40.0444 0.0173314 32.0017 3.04484 24.6927C6.07234 17.3836 11.1992 11.1365 17.7772 6.74121C24.3552 2.34596 32.0887 0 40 0C45.2529 0 50.4543 1.03463 55.3073 3.04482C60.1604 5.05501 64.5699 8.00138 68.2843 11.7157C71.9986 15.4301 74.945 19.8396 76.9552 24.6927C78.9654 29.5457 80 34.7471 80 40ZM62.8824 36.9382C62.8797 35.8778 62.4573 34.8615 61.7074 34.1117C60.9576 33.3618 59.9413 32.9394 58.8809 32.9367H57.3247C56.5786 30.6507 55.3285 28.5615 53.6668 26.8233C53.3416 23.8649 53.9045 20.8766 55.2836 18.2392C55.3716 18.0714 55.4027 17.8795 55.3721 17.6924C55.3416 17.5054 55.2511 17.3334 55.1143 17.2022C54.9774 17.0711 54.8017 16.988 54.6135 16.9654C54.4253 16.9429 54.2349 16.9821 54.071 17.0772L45.3 22.1902C44.2346 21.9694 43.1495 21.8577 42.0614 21.8568H35.3114C31.5918 21.8574 27.9876 23.1487 25.1138 25.5102C22.24 27.8717 20.2746 31.1572 19.5529 34.8061C18.7261 34.8061 17.9332 35.1345 17.3486 35.7192C16.764 36.3038 16.4355 37.0967 16.4355 37.9234C16.4355 38.7502 16.764 39.5431 17.3486 40.1277C17.9332 40.7124 18.7261 41.0408 19.5529 41.0408C20.1709 44.163 21.7026 47.0311 23.9535 49.2813C24.223 49.5507 24.5026 49.8118 24.7922 50.0644V56.8852C24.7949 57.3087 24.9646 57.714 25.2646 58.013C25.5645 58.3119 25.9704 58.4804 26.3939 58.4817H31.5018C31.9253 58.4804 32.3312 58.3119 32.6311 58.013C32.931 57.714 33.1008 57.3087 33.1035 56.8852V53.8335C33.835 53.935 34.5728 53.9856 35.3114 53.9851H42.0563C42.7949 53.9856 43.5327 53.9349 44.2642 53.8335V56.8852C44.2669 57.3087 44.4367 57.714 44.7366 58.013C45.0365 58.3119 45.4424 58.4804 45.8659 58.4817H50.9739C51.3974 58.4804 51.8032 58.3119 52.1031 58.013C52.4031 57.714 52.5728 57.3087 52.5755 56.8852V50.0644C52.8618 49.8152 53.1413 49.5541 53.4142 49.2813C55.2003 47.4945 56.5401 45.3117 57.3247 42.9102H58.8809C59.9413 42.9075 60.9576 42.4851 61.7074 41.7352C62.4573 40.9854 62.8797 39.9691 62.8824 38.9087V36.9382ZM43.4256 24.2819C43.6431 24.2697 43.8609 24.302 44.0655 24.3768C44.2702 24.4516 44.4574 24.5674 44.6157 24.7171C44.7741 24.8668 44.9002 25.0473 44.9864 25.2474C45.0726 25.4475 45.1171 25.6631 45.1171 25.881C45.1171 26.0989 45.0726 26.3145 44.9864 26.5146C44.9002 26.7148 44.7741 26.8952 44.6157 27.0449C44.4574 27.1946 44.2702 27.3104 44.0655 27.3852C43.8609 27.46 43.6431 27.4923 43.4256 27.4801H34.5333C34.3157 27.4923 34.098 27.46 33.8933 27.3852C33.6887 27.3104 33.5015 27.1946 33.3431 27.0449C33.1848 26.8952 33.0586 26.7148 32.9724 26.5146C32.8862 26.3145 32.8418 26.0989 32.8418 25.881C32.8418 25.6631 32.8862 25.4475 32.9724 25.2474C33.0586 25.0473 33.1848 24.8668 33.3431 24.7171C33.5015 24.5674 33.6887 24.4516 33.8933 24.3768C34.098 24.302 34.3157 24.2697 34.5333 24.2819H43.4256ZM43.4053 40.5406C44.0707 41.2999 44.4386 42.2745 44.4411 43.2841C44.439 43.9997 44.2489 44.7021 43.8898 45.3211C43.5306 45.9401 43.0151 46.4537 42.3949 46.8106C41.7887 47.1956 41.1228 47.4773 40.4244 47.6443V48.488C40.4244 48.9128 40.2557 49.3202 39.9553 49.6206C39.6549 49.9209 39.2476 50.0897 38.8228 50.0897C38.398 50.0897 37.9906 49.9209 37.6903 49.6206C37.3899 49.3202 37.2212 48.9128 37.2212 48.488V47.6645C36.7922 47.5678 36.3728 47.4325 35.9682 47.2603C35.2777 46.9776 34.6658 46.5321 34.1847 45.9618C33.9066 45.6402 33.7677 45.2214 33.7985 44.7974C33.8293 44.3733 34.0273 43.9789 34.3489 43.7009C34.6705 43.4228 35.0894 43.2839 35.5134 43.3147C35.9374 43.3455 36.3318 43.5435 36.6098 43.8651C36.7552 44.0493 36.9422 44.1965 37.1555 44.2945C37.4041 44.4043 37.6631 44.4889 37.9285 44.5472C38.2055 44.5998 38.4857 44.6336 38.7672 44.6482C39.4306 44.6462 40.0813 44.4665 40.6518 44.1278C41.2379 43.7438 41.2379 43.4356 41.2379 43.2841C41.2353 43.0498 41.1493 42.8241 40.9953 42.6475C40.8196 42.4471 40.6112 42.278 40.3789 42.1473C40.1341 42.0235 39.8742 41.9318 39.6059 41.8744C39.3535 41.8207 39.0961 41.7936 38.838 41.7936C38.393 41.7969 37.9485 41.7631 37.5092 41.6926C36.9105 41.5935 36.3299 41.4062 35.7863 41.1368C35.1513 40.8169 34.5916 40.3657 34.1443 39.813C33.5217 39.0623 33.1757 38.1206 33.1641 37.1454C33.1778 36.4052 33.3822 35.6811 33.7574 35.043C34.1327 34.4049 34.6661 33.8743 35.3063 33.5026C35.8989 33.1355 36.5474 32.8676 37.2262 32.7094V31.901C37.2087 31.6806 37.2369 31.459 37.3092 31.2501C37.3815 31.0413 37.4962 30.8496 37.6462 30.6872C37.7962 30.5248 37.9781 30.3952 38.1806 30.3066C38.3831 30.218 38.6018 30.1722 38.8228 30.1722C39.0438 30.1722 39.2625 30.218 39.465 30.3066C39.6675 30.3952 39.8494 30.5248 39.9994 30.6872C40.1494 30.8496 40.2641 31.0413 40.3364 31.2501C40.4086 31.459 40.4369 31.6806 40.4194 31.901V32.7498C40.86 32.8623 41.2895 33.0145 41.7027 33.2045C42.2829 33.4654 42.8116 33.8282 43.2639 34.2756C43.5467 34.5787 43.7009 34.9797 43.6942 35.3942C43.6875 35.8087 43.5203 36.2044 43.2279 36.4982C42.9354 36.792 42.5404 36.9609 42.1259 36.9695C41.7115 36.9781 41.3098 36.8256 41.0054 36.5441C40.8267 36.3673 40.618 36.2236 40.389 36.1197C40.1345 36.0011 39.8688 35.908 39.5958 35.8419L39.5099 35.8267C39.2977 35.7725 39.0814 35.7353 38.8632 35.7155C38.2142 35.7115 37.5759 35.8807 37.014 36.2056C36.8336 36.2922 36.679 36.4245 36.5655 36.5894C36.4521 36.7543 36.3838 36.9459 36.3673 37.1454C36.38 37.3849 36.4704 37.6137 36.625 37.7971C36.7868 37.9949 36.9881 38.1567 37.2161 38.2721C37.4746 38.3993 37.7504 38.4878 38.0346 38.5348C38.3019 38.5776 38.5723 38.5979 38.843 38.5954C39.3287 38.5945 39.8131 38.6453 40.288 38.747C40.838 38.8668 41.3697 39.0588 41.8694 39.3179C42.4502 39.6306 42.9704 40.0447 43.4053 40.5406Z" fill="white"/>
</svg>
