<svg width="80" height="80" viewBox="0 0 80 80" fill="none" xmlns="http://www.w3.org/2000/svg">
<path d="M80 40C80 62.0914 62.0914 80 40 80C17.9086 80 0 62.0914 0 40C0 17.9086 17.9086 0 40 0C62.0914 0 80 17.9086 80 40Z" fill="#00C5D2"/>
<path d="M58.275 36.1562L55.425 27.6063C55.0116 26.3614 54.2164 25.2785 53.1523 24.5115C52.0883 23.7444 50.8096 23.3322 49.4979 23.3333H30.5021C29.1904 23.3322 27.9117 23.7444 26.8477 24.5115C25.7837 25.2785 24.9884 26.3614 24.575 27.6063L21.725 36.1562C20.9671 36.4734 20.3199 37.0074 19.8647 37.6913C19.4095 38.3753 19.1667 39.1785 19.1667 40V50.4167C19.1667 51.9542 20.0083 53.2833 21.25 54.0062V58.75C21.25 59.3025 21.4695 59.8324 21.8602 60.2231C22.2509 60.6138 22.7808 60.8333 23.3333 60.8333H25.4167C25.9692 60.8333 26.4991 60.6138 26.8898 60.2231C27.2805 59.8324 27.5 59.3025 27.5 58.75V54.5833H52.5V58.75C52.5 59.3025 52.7195 59.8324 53.1102 60.2231C53.5009 60.6138 54.0308 60.8333 54.5833 60.8333H56.6667C57.2192 60.8333 57.7491 60.6138 58.1398 60.2231C58.5305 59.8324 58.75 59.3025 58.75 58.75V54.0062C59.3821 53.6438 59.9074 53.1211 60.2732 52.4909C60.6389 51.8607 60.8321 51.1453 60.8333 50.4167V40C60.8333 39.1785 60.5905 38.3753 60.1353 37.6913C59.6801 37.0074 59.0329 36.4734 58.275 36.1562ZM30.5021 27.5H49.4958C50.3938 27.5 51.1896 28.0708 51.4729 28.925L53.7771 35.8333H26.2229L28.525 28.925C28.6632 28.51 28.9286 28.149 29.2834 27.8932C29.6383 27.6375 30.0647 27.4999 30.5021 27.5ZM26.4583 48.3333C26.0478 48.3332 25.6413 48.2522 25.2621 48.095C24.8829 47.9378 24.5384 47.7074 24.2482 47.417C23.958 47.1266 23.7279 46.7819 23.5709 46.4026C23.4139 46.0233 23.3332 45.6168 23.3333 45.2062C23.3335 44.7957 23.4145 44.3893 23.5717 44.01C23.7289 43.6308 23.9593 43.2863 24.2497 42.9961C24.54 42.7059 24.8847 42.4758 25.2641 42.3188C25.6434 42.1618 26.0499 42.0811 26.4604 42.0812C27.2895 42.0815 28.0845 42.4111 28.6706 42.9976C29.2566 43.584 29.5857 44.3793 29.5854 45.2083C29.5851 46.0374 29.2555 46.8324 28.6691 47.4185C28.0826 48.0045 27.2874 48.3336 26.4583 48.3333ZM53.5417 48.3333C53.1311 48.3332 52.7247 48.2522 52.3455 48.095C51.9662 47.9378 51.6217 47.7074 51.3315 47.417C51.0413 47.1266 50.8112 46.7819 50.6542 46.4026C50.4973 46.0233 50.4165 45.6168 50.4167 45.2062C50.4168 44.7957 50.4978 44.3893 50.655 44.01C50.8123 43.6308 51.0426 43.2863 51.333 42.9961C51.6234 42.7059 51.9681 42.4758 52.3474 42.3188C52.7267 42.1618 53.1332 42.0811 53.5438 42.0812C54.3728 42.0815 55.1678 42.4111 55.7539 42.9976C56.3399 43.584 56.669 44.3793 56.6688 45.2083C56.6685 46.0374 56.3389 46.8324 55.7524 47.4185C55.166 48.0045 54.3707 48.3336 53.5417 48.3333Z" fill="white"/>
</svg>
