<svg width="80" height="80" viewBox="0 0 80 80" fill="none" xmlns="http://www.w3.org/2000/svg">
<path d="M80 40C80 62.0914 62.0914 80 40 80C17.9086 80 0 62.0914 0 40C0 17.9086 17.9086 0 40 0C62.0914 0 80 17.9086 80 40Z" fill="#FF4141"/>
<path d="M52.5 32.3125C51.75 31.4583 50.9792 30.6042 50.1667 29.7917L49.5625 29.2292L49.8542 28.9792C50.873 28.1046 51.599 26.9386 51.9343 25.6384C52.2696 24.3382 52.198 22.9665 51.7292 21.7083C51.0498 20.2895 49.9741 19.0978 48.6321 18.277C47.2901 17.4563 45.7392 17.0417 44.1667 17.0833V21.25C44.9079 21.2397 45.6385 21.4273 46.283 21.7935C46.9276 22.1597 47.4627 22.6913 47.8333 23.3333C48.1875 24.1667 47.8333 25.0833 46.8542 26.0625C46.7083 26.2292 46.5417 26.3333 46.3958 26.4792C40.1458 21.4583 33.2917 18.625 29.9375 21.9792C29.5862 22.3383 29.2974 22.7538 29.0833 23.2083V23.4167L28.7083 24.5208L19.5208 51.8125C19.1733 52.841 19.0758 53.9374 19.2364 55.0111C19.3971 56.0847 19.8112 57.1046 20.4445 57.9863C21.0778 58.8681 21.912 59.5862 22.8781 60.0813C23.8442 60.5764 24.9144 60.8342 26 60.8333C26.7088 60.8264 27.412 60.7069 28.0833 60.4792L56.6667 51C57.0179 50.8692 57.3274 50.6461 57.5625 50.3542L58 49.9792C60.9792 46.9792 59.0625 41.2083 55.0625 35.6042C57.4376 34.218 60.1724 33.5724 62.9167 33.75V29.5833C59.2445 29.3813 55.6014 30.3358 52.5 32.3125ZM26.875 56.5208C26.4021 56.6774 25.895 56.6994 25.4103 56.5844C24.9256 56.4694 24.4824 56.222 24.1302 55.8698C23.778 55.5176 23.5306 55.0744 23.4156 54.5897C23.3006 54.105 23.3226 53.5979 23.4792 53.125L26.3125 44.5833C28.3345 48.4394 31.4416 51.6188 35.25 53.7292L26.875 56.5208ZM41.4583 51.6667C38.3098 50.8328 35.4377 49.1817 33.1328 46.8804C30.8279 44.5792 29.1722 41.7097 28.3333 38.5625L30.4167 32.3125L30.5417 32.5C30.7708 32.9583 31.0625 33.4375 31.3542 33.9167C31.6458 34.3958 31.6875 34.5208 31.8958 34.8333C32.1042 35.1458 32.5833 35.8333 32.9583 36.3542C33.3333 36.875 33.3542 36.9375 33.5833 37.2292C33.8125 37.5208 34.4792 38.375 34.9583 38.9375L35.5625 39.6667C36.2708 40.4792 37.0208 41.2708 37.8125 42.0833C38.6042 42.8958 39.2292 43.4167 39.8958 44.1667L40.5833 44.75L42.2083 46.0625L42.9792 46.6458C43.5625 47.0625 44.125 47.4792 44.7083 47.8542L45.3542 48.2708C46.1042 48.7292 46.8542 49.1667 47.5833 49.5417H47.6875L41.4583 51.6667ZM55.0208 47.0208H54.8958C53.4583 47.8125 47.4792 45.8333 40.75 39.0833C40.0417 38.375 39.375 37.6875 38.7708 37L37.0625 34.9375L36.4583 34.1042C36.1875 33.7083 35.8958 33.3333 35.6458 32.9583L35.1042 32.0833L34.5 31.1042C34.3333 30.8125 34.2083 30.5417 34.0625 30.2708C33.9167 30 33.75 29.7292 33.625 29.4375C33.5133 29.1934 33.4159 28.943 33.3333 28.6875C33.2292 28.4167 33.1042 28.1458 33.0208 27.8958C32.9375 27.6458 32.9167 27.5 32.8542 27.25C32.7917 27 32.75 26.7917 32.7083 26.5833C32.6979 26.4029 32.6979 26.2221 32.7083 26.0417C32.6883 25.8756 32.6883 25.7077 32.7083 25.5417L32.9375 24.8958C33.6875 24.1458 37.5833 24.8958 42.7917 28.8542C41.9088 29.2526 40.965 29.4991 40 29.5833V33.75C42.213 33.6227 44.3601 32.9499 46.25 31.7917L47.25 32.75C48.125 33.625 48.9375 34.5208 49.7083 35.4167C48.5158 37.5732 48.076 40.0656 48.4583 42.5L52.625 41.6875C52.5022 40.9146 52.5022 40.1271 52.625 39.3542C53.2608 40.3184 53.8249 41.328 54.3125 42.375C55.4792 45.125 55.3958 46.6667 55.0208 47.0208Z" fill="white"/>
</svg>
