<svg width="449" height="449" viewBox="0 0 449 449" fill="none" xmlns="http://www.w3.org/2000/svg">
<path d="M0 0H449V449H0V0Z" fill="#406661"/>
<path d="M293.097 141.872C293.097 180.618 261.687 212.028 222.941 212.028C184.195 212.028 152.785 180.618 152.785 141.872C152.785 103.125 184.195 71.7153 222.941 71.7153C261.687 71.7153 293.097 103.125 293.097 141.872Z" fill="#F3A73A"/>
<path fill-rule="evenodd" clip-rule="evenodd" d="M214.403 183.965H200.743V169.996H187.083V156.028H200.743V149.043H187.083V135.074H200.743V96.6598H233.186C247.331 96.6598 258.798 108.386 258.798 122.851C258.798 137.317 247.331 149.043 233.186 149.043H214.403V156.028H241.723V169.996H214.403V183.965ZM214.403 136.289H233.186C240.443 136.289 246.326 130.273 246.326 122.851C246.326 115.43 240.443 109.414 233.186 109.414H214.403V136.289Z" fill="#FFE5B8"/>
<path d="M77.9512 208.91C77.9512 191.689 91.9112 177.729 109.132 177.729H336.75C353.97 177.729 367.93 191.689 367.93 208.91V346.104C367.93 363.325 353.97 377.285 336.75 377.285H109.132C91.9112 377.285 77.9512 363.325 77.9512 346.104V208.91Z" fill="white"/>
<path d="M299.333 212.028H77.9512V342.986H299.333C316.554 342.986 330.514 329.026 330.514 311.806V308.688H308.687C291.467 308.688 277.507 294.728 277.507 277.507C277.507 260.286 291.467 246.326 308.687 246.326H330.514V243.208C330.514 225.988 316.554 212.028 299.333 212.028Z" fill="black"/>
<path d="M321.159 277.507C321.159 282.673 316.971 286.861 311.805 286.861C306.639 286.861 302.451 282.673 302.451 277.507C302.451 272.341 306.639 268.153 311.805 268.153C316.971 268.153 321.159 272.341 321.159 277.507Z" fill="black"/>
<path d="M362.93 303.687L308.687 303.687C294.228 303.687 282.507 291.966 282.507 277.507C282.507 263.048 294.228 251.326 308.687 251.326L362.93 251.326L362.93 303.687Z" stroke="black" stroke-width="10"/>
</svg>
