<svg width="80" height="80" viewBox="0 0 80 80" fill="none" xmlns="http://www.w3.org/2000/svg">
<path d="M80 40C80 62.0914 62.0914 80 40 80C17.9086 80 0 62.0914 0 40C0 17.9086 17.9086 0 40 0C62.0914 0 80 17.9086 80 40Z" fill="#62AF00"/>
<path d="M60.125 36.3542L41.375 19.6875C40.9948 19.3535 40.5061 19.1693 40 19.1693C39.4939 19.1693 39.0052 19.3535 38.625 19.6875L19.875 36.3542C19.5563 36.6361 19.3316 37.0088 19.231 37.4222C19.1305 37.8356 19.1589 38.2699 19.3125 38.6667C19.4636 39.0582 19.7294 39.395 20.0751 39.6329C20.4208 39.8708 20.8303 39.9988 21.25 40H23.3333V58.75C23.3333 59.3025 23.5528 59.8324 23.9435 60.2231C24.3342 60.6138 24.8641 60.8333 25.4167 60.8333H54.5833C55.1359 60.8333 55.6658 60.6138 56.0565 60.2231C56.4472 59.8324 56.6667 59.3025 56.6667 58.75V40H58.75C59.1697 39.9988 59.5792 39.8708 59.9249 39.6329C60.2706 39.395 60.5364 39.0582 60.6875 38.6667C60.8411 38.2699 60.8695 37.8356 60.769 37.4222C60.6684 37.0088 60.4437 36.6361 60.125 36.3542ZM42.0833 56.6667H37.9167V50.4167C37.9167 49.8641 38.1362 49.3342 38.5269 48.9435C38.9176 48.5528 39.4475 48.3333 40 48.3333C40.5525 48.3333 41.0824 48.5528 41.4731 48.9435C41.8638 49.3342 42.0833 49.8641 42.0833 50.4167V56.6667ZM52.5 56.6667H46.25V50.4167C46.25 48.7591 45.5915 47.1693 44.4194 45.9972C43.2473 44.8251 41.6576 44.1667 40 44.1667C38.3424 44.1667 36.7527 44.8251 35.5806 45.9972C34.4085 47.1693 33.75 48.7591 33.75 50.4167V56.6667H27.5V40H52.5V56.6667ZM26.7292 35.8333L40 24.0417L53.2708 35.8333H26.7292Z" fill="white"/>
</svg>
