<svg width="80" height="80" viewBox="0 0 80 80" fill="none" xmlns="http://www.w3.org/2000/svg">
<path d="M80 40C80 62.0914 62.0914 80 40 80C17.9086 80 0 62.0914 0 40C0 17.9086 17.9086 0 40 0C62.0914 0 80 17.9086 80 40Z" fill="#FFD600"/>
<path d="M39.9994 23.3333C38.0655 23.3333 36.2108 24.1015 34.8434 25.4689C33.4759 26.8364 32.7077 28.691 32.7077 30.6249H36.8744C36.8744 29.7961 37.2036 29.0013 37.7896 28.4152C38.3757 27.8292 39.1706 27.4999 39.9994 27.4999C40.8282 27.4999 41.623 27.8292 42.2091 28.4152C42.7951 29.0013 43.1244 29.7961 43.1244 30.6249C43.1244 31.4537 42.7951 32.2486 42.2091 32.8346C41.623 33.4207 40.8282 33.7499 39.9994 33.7499C38.8535 33.7499 37.916 34.6874 37.916 35.8333V39.4791L19.9993 52.9166C19.6495 53.1789 19.3912 53.5447 19.2608 53.9621C19.1304 54.3794 19.1347 54.8272 19.2729 55.2421C19.4112 55.6569 19.6765 56.0177 20.0312 56.2733C20.3859 56.529 20.8121 56.6666 21.2493 56.6666H58.7494C59.1866 56.6666 59.6128 56.529 59.9675 56.2733C60.3222 56.0177 60.5875 55.6569 60.7258 55.2421C60.864 54.8272 60.8683 54.3794 60.7379 53.9621C60.6075 53.5447 60.3492 53.1789 59.9994 52.9166L42.0827 39.4791V37.6041C43.5861 37.1559 44.9049 36.2347 45.8431 34.9774C46.7814 33.7201 47.2892 32.1937 47.291 30.6249C47.291 28.691 46.5228 26.8364 45.1553 25.4689C43.7879 24.1015 41.9332 23.3333 39.9994 23.3333ZM39.9994 43.1249L52.4994 52.4999H27.4993L39.9994 43.1249Z" fill="white"/>
</svg>
