<svg width="80" height="80" viewBox="0 0 80 80" fill="none" xmlns="http://www.w3.org/2000/svg">
<path d="M80 40C80 62.0914 62.0914 80 40 80C17.9086 80 0 62.0914 0 40C0 17.9086 17.9086 0 40 0C62.0914 0 80 17.9086 80 40Z" fill="#B9E937"/>
<path fill-rule="evenodd" clip-rule="evenodd" d="M37.574 22.0833C38.4751 21.5375 39.5085 21.249 40.562 21.249C41.6155 21.249 42.6489 21.5375 43.55 22.0833L45.6719 23.3812C48.649 25.201 52.0396 25.6063 55.4458 26.0146C56.5469 26.1469 57.649 26.2781 58.7396 26.4583C58.7396 26.4583 58.7635 28.3687 58.7385 29.2354L58.5208 36.6844C58.3333 43.0729 55.4927 49.1302 50.6198 53.5323C48.3208 55.6083 45.9427 57.4844 43.2104 59.0427C42.4052 59.4982 41.5024 59.7537 40.5779 59.7876C39.6534 59.8215 38.7343 59.6328 37.8979 59.2375C34.7427 57.7375 31.949 55.8354 29.3979 53.5323C24.525 49.1302 21.6844 43.0729 21.4979 36.6844L21.2812 29.2594C21.2552 28.3802 21.2812 26.4583 21.2812 26.4583C22.1667 26.3542 23.0688 26.2677 23.9781 26.1812C27.9917 25.8 32.1385 25.4062 35.5406 23.3271L37.574 22.0833ZM37.9167 37.9167V30.625H42.0833V37.9167H49.375V42.0833H42.0833V49.375H37.9167V42.0833H30.625V37.9167H37.9167Z" fill="white"/>
</svg>
