<svg width="100" height="100" viewBox="0 0 100 100" fill="none" xmlns="http://www.w3.org/2000/svg">
<path d="M100 50C100 77.6142 77.6142 100 50 100C22.3858 100 0 77.6142 0 50C0 22.3858 22.3858 0 50 0C77.6142 0 100 22.3858 100 50Z" fill="#406661"/>
<path d="M68.9966 56.4966C67.8901 57.603 67.8901 59.397 68.9966 60.5034C70.103 61.6099 71.897 61.6099 73.0034 60.5034L81.257 52.25C81.2995 52.2075 81.3408 52.1638 81.3805 52.1193C81.965 51.6003 82.3333 50.8432 82.3333 50C82.3333 49.1568 81.965 48.3997 81.3805 47.8807C81.3408 47.8362 81.2995 47.7925 81.257 47.75L73.0034 39.4965C71.897 38.39 70.103 38.39 68.9966 39.4965C67.8901 40.603 67.8901 42.397 68.9966 43.5035L72.6598 47.1667H56.8333C55.2685 47.1667 54 48.4352 54 50C54 51.5648 55.2685 52.8333 56.8333 52.8333H72.6598L68.9966 56.4966Z" fill="white"/>
<path d="M34.1667 21.6667C29.4723 21.6667 25.6667 25.4723 25.6667 30.1667V69.8333C25.6667 74.5279 29.4723 78.3333 34.1667 78.3333H61.0833C64.9953 78.3333 68.1667 75.162 68.1667 71.25V63.409C67.747 63.1665 67.3521 62.8659 66.9931 62.5069C65.139 60.6528 64.8383 57.8339 66.091 55.6667H56.8333C53.7036 55.6667 51.1667 53.1297 51.1667 50C51.1667 46.8703 53.7036 44.3333 56.8333 44.3333H66.091C64.8383 42.1662 65.139 39.3471 66.9931 37.4931C67.3521 37.1341 67.747 36.8334 68.1667 36.5909V28.75C68.1667 24.838 64.9953 21.6667 61.0833 21.6667H34.1667Z" fill="white"/>
</svg>
