<svg width="80" height="80" viewBox="0 0 80 80" fill="none" xmlns="http://www.w3.org/2000/svg">
<path fill-rule="evenodd" clip-rule="evenodd" d="M40 0C62.0914 0 80 17.9086 80 40C80 62.0914 62.0914 80 40 80C17.9086 80 0 62.0914 0 40C0 17.9086 17.9086 0 40 0ZM41.9993 77.534C41.9876 77.5267 41.9731 77.5278 41.9595 77.5301C41.9466 77.5322 41.934 77.5363 41.9223 77.5421L41.7247 77.6395C41.7105 77.6465 41.6955 77.6516 41.6799 77.6547L41.6708 77.6565C41.6484 77.661 41.6252 77.6601 41.6032 77.6538C41.5944 77.6513 41.5859 77.6479 41.5777 77.6438L41.3814 77.5442C41.3627 77.5348 41.3431 77.5249 41.3223 77.5262C41.3085 77.5271 41.2961 77.5315 41.286 77.5385C41.2766 77.5449 41.2712 77.5554 41.2669 77.566C41.2623 77.5775 41.2597 77.5896 41.2593 77.602L41.2044 78.982C41.2037 79.0006 41.2056 79.0191 41.2101 79.0372L41.2123 79.0458C41.2174 79.0662 41.2266 79.0853 41.2394 79.1019C41.2486 79.1139 41.2596 79.1245 41.2719 79.1332L41.5841 79.3554C41.5946 79.3628 41.6064 79.3684 41.6188 79.3717L41.6228 79.3727C41.6405 79.3775 41.6593 79.3769 41.6767 79.3711C41.6855 79.3682 41.6939 79.3639 41.7014 79.3585L42.0135 79.1365C42.0288 79.1256 42.0424 79.1123 42.0537 79.0972L42.0555 79.0949C42.0695 79.0763 42.0794 79.055 42.0847 79.0323C42.0882 79.0175 42.0897 79.0023 42.0891 78.9871L42.0345 77.6154C42.0337 77.5963 42.0329 77.5764 42.0234 77.5598C42.017 77.5486 42.0086 77.5398 41.9993 77.534ZM42.8825 77.1583C42.8686 77.1505 42.852 77.1511 42.8362 77.1534C42.8211 77.1556 42.8064 77.1602 42.7927 77.1671L42.2158 77.4587C42.2053 77.464 42.1958 77.4709 42.1875 77.4792L42.1836 77.483C42.1725 77.4942 42.1645 77.508 42.1604 77.5231C42.1579 77.5321 42.1569 77.5414 42.1573 77.5507L42.2158 78.9495C42.2164 78.963 42.2193 78.9764 42.2246 78.989L42.2257 78.9918C42.2308 79.0038 42.2381 79.0147 42.2473 79.024C42.2557 79.0324 42.2655 79.0392 42.2763 79.0441L42.93 79.3433C42.9598 79.3533 42.9878 79.3484 43.0084 79.3342C43.0222 79.3246 43.029 79.3084 43.0336 79.2923C43.0378 79.2775 43.0396 79.2622 43.0387 79.2469L42.9287 77.2607C42.9274 77.2359 42.9256 77.2101 42.9128 77.1887C42.9048 77.1755 42.8947 77.1652 42.8825 77.1583ZM40.4767 77.1567C40.4615 77.1498 40.4446 77.148 40.4283 77.1516C40.4198 77.1535 40.4117 77.1568 40.4044 77.1614C40.3912 77.1696 40.3835 77.1839 40.3774 77.1983C40.3703 77.2148 40.3662 77.2325 40.3652 77.2506L40.2533 79.27C40.2533 79.2977 40.2645 79.319 40.2825 79.3339C40.2986 79.3473 40.3209 79.3485 40.3417 79.3458C40.3538 79.3442 40.3656 79.3407 40.3768 79.3356L41.0195 79.0382C41.0265 79.035 41.033 79.0309 41.039 79.0261L41.0413 79.0243C41.0556 79.0128 41.0659 78.9971 41.0708 78.9794C41.0725 78.9732 41.0735 78.9667 41.0737 78.9602L41.1327 77.5508C41.1331 77.5414 41.1322 77.532 41.1299 77.523C41.1256 77.5058 41.1167 77.49 41.1042 77.4775L41.1023 77.4756C41.0942 77.4675 41.0847 77.4607 41.0744 77.4555L40.4767 77.1567Z" fill="#F5F5F5"/>
<path fill-rule="evenodd" clip-rule="evenodd" d="M40 0C17.9086 0 0 17.9086 0 40C0 62.0914 17.9086 80 40 80C62.0914 80 80 62.0914 80 40C80 17.9086 62.0914 0 40 0ZM26 30C26 28.1615 26.3621 26.341 27.0657 24.6424C27.7693 22.9439 28.8005 21.4005 30.1005 20.1005C31.4005 18.8005 32.9439 17.7693 34.6424 17.0657C36.341 16.3621 38.1615 16 40 16C41.8385 16 43.659 16.3621 45.3576 17.0657C47.0561 17.7693 48.5995 18.8005 49.8995 20.1005C51.1995 21.4005 52.2307 22.9439 52.9343 24.6424C53.6379 26.341 54 28.1615 54 30C54 33.713 52.525 37.274 49.8995 39.8995C47.274 42.525 43.713 44 40 44C36.287 44 32.726 42.525 30.1005 39.8995C27.475 37.274 26 33.713 26 30ZM65.032 59.936C62.0377 63.7025 58.2312 66.7438 53.8967 68.8328C49.5621 70.9218 44.8117 72.0045 40 72C35.1883 72.0045 30.4379 70.9218 26.1033 68.8328C21.7688 66.7438 17.9623 63.7025 14.968 59.936C21.452 55.284 30.3 52 40 52C49.7 52 58.548 55.284 65.032 59.936Z" fill="#406661"/>
</svg>
