<svg width="1446" height="140" viewBox="0 0 1446 140" fill="none" xmlns="http://www.w3.org/2000/svg">
<path d="M41.6586 3H111.859V35H43.8586C41.3253 35 39.3919 35.6 38.0586 36.8C36.8586 38 36.2586 39.5333 36.2586 41.4C36.2586 45.1333 38.3253 47.5333 42.4586 48.6L89.6586 59.4C99.7919 61.8 107.525 66.4667 112.859 73.4C118.192 80.3333 120.859 88.2 120.859 97C120.859 107.933 117.192 117.333 109.859 125.2C102.525 133.067 92.3919 137 79.4586 137H6.25859V105H78.2586C80.6586 105 82.5919 104.267 84.0586 102.8C85.5253 101.2 86.2586 99.4667 86.2586 97.6C86.2586 93.7333 83.9919 91.3333 79.4586 90.4L32.0586 79.4C21.9253 77 14.1919 72.3333 8.85859 65.4C3.52526 58.4667 0.858594 50.6667 0.858594 42C0.858594 31.3333 4.45859 22.2 11.6586 14.6C18.8586 6.86666 28.8586 3 41.6586 3ZM231.374 81.2H265.174C263.441 98.2667 256.374 112.333 243.974 123.4C231.574 134.467 215.841 140 196.774 140C175.974 140 159.174 133.333 146.374 120C133.574 106.667 127.174 90.1333 127.174 70.4C127.174 50.5333 133.574 33.8667 146.374 20.4C159.174 6.79999 175.974 -1.23978e-05 196.774 -1.23978e-05C215.308 -1.23978e-05 230.774 5.46666 243.174 16.4C255.574 27.2 262.774 40.8667 264.774 57.4H230.574C228.574 49.8 224.574 43.7333 218.574 39.2C212.574 34.5333 205.174 32.2667 196.374 32.4C185.308 32.5333 176.574 36.2 170.174 43.4C163.908 50.6 160.774 59.4667 160.774 70C160.774 80.5333 163.974 89.4667 170.374 96.8C176.774 104 185.574 107.6 196.774 107.6C205.708 107.6 213.241 105.267 219.374 100.6C225.508 95.8 229.508 89.3333 231.374 81.2ZM310.077 137H277.077V3H346.277C360.677 3 372.144 6.26666 380.677 12.8C389.344 19.2 393.677 28.4 393.677 40.4C393.677 53.0667 389.277 62.5333 380.477 68.8V69.6C391.944 72.4 397.677 81 397.677 95.4V137H364.677V101.2C364.677 96.2667 362.144 93.8 357.077 93.8H310.077V137ZM310.077 35V64.6H343.477C348.811 64.6 353.011 63.2667 356.077 60.6C359.277 57.9333 360.877 54.2 360.877 49.4C360.877 44.8667 359.277 41.3333 356.077 38.8C352.877 36.2667 348.744 35 343.677 35H310.077ZM526.824 120C513.758 133.333 496.624 140 475.424 140C454.224 140 437.091 133.333 424.024 120C410.958 106.533 404.424 90 404.424 70.4C404.424 50.6667 410.958 34 424.024 20.4C437.091 6.79999 454.224 -1.23978e-05 475.424 -1.23978e-05C496.624 -1.23978e-05 513.758 6.79999 526.824 20.4C539.891 34 546.424 50.6667 546.424 70.4C546.424 90 539.891 106.533 526.824 120ZM475.424 107.6C486.758 107.6 495.824 103.933 502.624 96.6C509.424 89.2667 512.824 80.4 512.824 70C512.824 59.4667 509.424 50.6 502.624 43.4C495.958 36.0667 486.891 32.4 475.424 32.4C463.958 32.4 454.824 36.0667 448.024 43.4C441.358 50.6 438.024 59.4667 438.024 70C438.024 80.4 441.358 89.2667 448.024 96.6C454.824 103.933 463.958 107.6 475.424 107.6ZM675.996 120C662.929 133.333 645.796 140 624.596 140C603.396 140 586.263 133.333 573.196 120C560.129 106.533 553.596 90 553.596 70.4C553.596 50.6667 560.129 34 573.196 20.4C586.263 6.79999 603.396 -1.23978e-05 624.596 -1.23978e-05C645.796 -1.23978e-05 662.929 6.79999 675.996 20.4C689.063 34 695.596 50.6667 695.596 70.4C695.596 90 689.063 106.533 675.996 120ZM624.596 107.6C635.929 107.6 644.996 103.933 651.796 96.6C658.596 89.2667 661.996 80.4 661.996 70C661.996 59.4667 658.596 50.6 651.796 43.4C645.129 36.0667 636.063 32.4 624.596 32.4C613.129 32.4 603.996 36.0667 597.196 43.4C590.529 50.6 587.196 59.4667 587.196 70C587.196 80.4 590.529 89.2667 597.196 96.6C603.996 103.933 613.129 107.6 624.596 107.6ZM769.968 60H842.568C844.701 82.4 839.101 101.333 825.768 116.8C812.568 132.267 794.768 140 772.368 140C751.835 140 735.101 133.333 722.168 120C709.235 106.667 702.768 90.1333 702.768 70.4C702.768 50.6667 709.168 34 721.968 20.4C734.901 6.79999 751.835 -1.23978e-05 772.768 -1.23978e-05C789.701 -1.23978e-05 804.168 4.59999 816.168 13.8C828.301 23 836.101 35 839.568 49.8H802.568C800.168 44.3333 796.301 40.0667 790.968 37C785.768 33.9333 779.635 32.4667 772.568 32.6C761.368 32.8667 752.501 36.5333 745.968 43.6C739.568 50.6667 736.368 59.4 736.368 69.8C736.368 80.3333 739.635 89.2667 746.168 96.6C752.835 103.8 761.835 107.4 773.168 107.4C781.035 107.4 787.768 105.8 793.368 102.6C799.101 99.4 803.301 94.9333 805.968 89.2H769.968V60ZM959.415 137H855.015V3H959.415V35H888.015V54.2H949.415V84.2H888.015V105H959.415V137Z" fill="black"/>
<path d="M1069.76 81.2H1103.56C1101.83 98.2667 1094.76 112.333 1082.36 123.4C1069.96 134.467 1054.23 140 1035.16 140C1014.36 140 997.565 133.333 984.765 120C971.965 106.667 965.565 90.1333 965.565 70.4C965.565 50.5333 971.965 33.8667 984.765 20.4C997.565 6.79999 1014.36 -1.23978e-05 1035.16 -1.23978e-05C1053.7 -1.23978e-05 1069.16 5.46666 1081.56 16.4C1093.96 27.2 1101.16 40.8667 1103.16 57.4H1068.96C1066.96 49.8 1062.96 43.7333 1056.96 39.2C1050.96 34.5333 1043.56 32.2667 1034.76 32.4C1023.7 32.5333 1014.96 36.2 1008.56 43.4C1002.3 50.6 999.165 59.4667 999.165 70C999.165 80.5333 1002.36 89.4667 1008.76 96.8C1015.16 104 1023.96 107.6 1035.16 107.6C1044.1 107.6 1051.63 105.267 1057.76 100.6C1063.9 95.8 1067.9 89.3333 1069.76 81.2ZM1232.64 120C1219.58 133.333 1202.44 140 1181.24 140C1160.04 140 1142.91 133.333 1129.84 120C1116.78 106.533 1110.24 90 1110.24 70.4C1110.24 50.6667 1116.78 34 1129.84 20.4C1142.91 6.79999 1160.04 -1.23978e-05 1181.24 -1.23978e-05C1202.44 -1.23978e-05 1219.58 6.79999 1232.64 20.4C1245.71 34 1252.24 50.6667 1252.24 70.4C1252.24 90 1245.71 106.533 1232.64 120ZM1181.24 107.6C1192.58 107.6 1201.64 103.933 1208.44 96.6C1215.24 89.2667 1218.64 80.4 1218.64 70C1218.64 59.4667 1215.24 50.6 1208.44 43.4C1201.78 36.0667 1192.71 32.4 1181.24 32.4C1169.78 32.4 1160.64 36.0667 1153.84 43.4C1147.18 50.6 1143.84 59.4667 1143.84 70C1143.84 80.4 1147.18 89.2667 1153.84 96.6C1160.64 103.933 1169.78 107.6 1181.24 107.6ZM1264.64 137V3H1297.64V137H1264.64ZM1412.13 84.2V3H1445.13V137H1412.13L1350.33 51.4V137H1317.33V3H1353.93L1412.13 84.2Z" fill="#B9E937"/>
</svg>
