<svg width="211" height="211" viewBox="0 0 211 211" fill="none" xmlns="http://www.w3.org/2000/svg">
<path d="M186.453 172.754C197.269 159.741 204.792 144.314 208.385 127.779C211.977 111.243 211.535 94.086 207.094 77.7579C202.654 61.4298 194.346 46.4114 182.873 33.9732C171.401 21.5349 157.102 12.0428 141.185 6.29967C125.268 0.556566 108.203 -1.26852 91.4314 0.978804C74.6601 3.22613 58.6769 9.47975 44.8337 19.2106C30.9905 28.9415 19.6946 41.8634 11.9016 56.8832C4.10857 71.903 0.0477192 88.5788 0.0625404 105.5C0.0682278 130.098 8.73662 153.909 24.5466 172.754L24.396 172.882C24.9232 173.515 25.5257 174.057 26.0679 174.682C26.7458 175.458 27.4763 176.188 28.1767 176.941C30.2854 179.231 32.4544 181.43 34.7289 183.494C35.4218 184.126 36.1372 184.714 36.8376 185.316C39.2476 187.395 41.7254 189.368 44.2936 191.206C44.6249 191.431 44.9262 191.725 45.2576 191.959V191.868C62.8965 204.281 83.9388 210.943 105.508 210.943C127.076 210.943 148.119 204.281 165.758 191.868V191.959C166.089 191.725 166.383 191.431 166.722 191.206C169.282 189.36 171.768 187.395 174.178 185.316C174.878 184.714 175.593 184.119 176.286 183.494C178.561 181.422 180.73 179.231 182.838 176.941C183.539 176.188 184.262 175.458 184.947 174.682C185.482 174.057 186.092 173.515 186.619 172.874L186.453 172.754ZM105.5 45.2499C112.203 45.2499 118.755 47.2376 124.329 50.9615C129.902 54.6855 134.246 59.9784 136.811 66.1712C139.376 72.3639 140.047 79.1781 138.739 85.7523C137.432 92.3264 134.204 98.3651 129.464 103.105C124.725 107.845 118.686 111.072 112.112 112.38C105.538 113.688 98.7234 113.016 92.5307 110.451C86.338 107.886 81.045 103.542 77.321 97.9691C73.5971 92.3959 71.6094 85.8435 71.6094 79.1405C71.6094 70.1522 75.18 61.532 81.5358 55.1762C87.8915 48.8205 96.5117 45.2499 105.5 45.2499ZM45.3028 172.754C45.4334 162.865 49.4521 153.425 56.4894 146.477C63.5266 139.528 73.0167 135.63 82.9063 135.625H128.094C137.983 135.63 147.473 139.528 154.511 146.477C161.548 153.425 165.567 162.865 165.697 172.754C149.18 187.638 127.734 195.875 105.5 195.875C83.2658 195.875 61.82 187.638 45.3028 172.754Z" fill="#406661"/>
</svg>
