<svg width="100" height="100" viewBox="0 0 100 100" fill="none" xmlns="http://www.w3.org/2000/svg">
<circle cx="50" cy="50" r="50" fill="#406661"/>
<path d="M29 71V66.3333H33.6667V33.6667C33.6667 32.3833 34.124 31.2851 35.0387 30.372C35.9533 29.4589 37.0516 29.0016 38.3333 29H61.6667C62.95 29 64.049 29.4573 64.9637 30.372C65.8783 31.2867 66.3349 32.3849 66.3333 33.6667V66.3333H71V71H29ZM45.3333 52.3333C45.9944 52.3333 46.549 52.1093 46.997 51.6613C47.445 51.2133 47.6682 50.6596 47.6667 50C47.6667 49.3389 47.4427 48.7851 46.9947 48.3387C46.5467 47.8922 45.9929 47.6682 45.3333 47.6667C44.6722 47.6667 44.1184 47.8907 43.672 48.3387C43.2256 48.7867 43.0016 49.3404 43 50C43 50.6611 43.224 51.2157 43.672 51.6637C44.12 52.1117 44.6738 52.3349 45.3333 52.3333Z" fill="white"/>
</svg>
